<svg width="29" height="29" viewBox="0 0 29 29" fill="none" xmlns="http://www.w3.org/2000/svg">
<path d="M12.5667 23.2C17.0778 20.9444 20.7833 17.0778 23.2 12.5667L19.6556 9.02222C19.1723 8.53895 19.0112 7.89444 19.3333 7.41111C19.9778 5.63889 20.3 3.70562 20.3 1.61111C20.3 0.644445 20.9444 1.54972e-06 21.9111 1.54972e-06H27.3889C28.3556 1.54972e-06 29 0.644445 29 1.61111C29 16.7556 16.7556 29 1.61111 29C0.644444 29 0 28.3556 0 27.3889L0 21.75C0 20.7833 0.644444 20.1389 1.61111 20.1389C3.54444 20.1389 5.47778 19.8167 7.41111 19.1722C7.89444 19.0111 8.53889 19.1722 9.02222 19.4944L12.5667 23.2Z" fill="#00F6FF"/>
</svg>
