<svg width="25" height="27" viewBox="0 0 25 27" fill="none" xmlns="http://www.w3.org/2000/svg">
<path d="M5 11.2819C6.94444 15.3318 10.2778 18.6585 14.1667 20.8281L17.2222 17.6461C17.6388 17.2122 18.1944 17.0675 18.6111 17.3568C20.1389 17.9353 21.8055 18.2246 23.6111 18.2246C24.4444 18.2246 25 18.8032 25 19.671V24.5888C25 25.4566 24.4444 26.0352 23.6111 26.0352C10.5556 26.0352 0 15.0425 0 1.4464C0 0.578559 0.555556 0 1.38889 0L6.25 0C7.08333 0 7.63889 0.578559 7.63889 1.4464C7.63889 3.18207 7.91667 4.91775 8.47222 6.65343C8.61111 7.08735 8.47222 7.66591 8.19444 8.09983L5 11.2819Z" fill="#3A3A3A" fill-opacity="0.8"/>
</svg>
